<?xml version="1.0" standalone="no"?><!DOCTYPE svg PUBLIC "-//W3C//DTD SVG 1.1//EN" "http://www.w3.org/Graphics/SVG/1.1/DTD/svg11.dtd"><svg width="100%" height="100%" viewBox="0 0 11 5" version="1.1" xmlns="http://www.w3.org/2000/svg" xmlns:xlink="http://www.w3.org/1999/xlink" xml:space="preserve" style="fill-rule:evenodd;clip-rule:evenodd;stroke-linejoin:round;stroke-miterlimit:1.41421;"><path d="M0.354,4.518l-0.27,0c-0.056,0 -0.084,-0.028 -0.084,-0.084l0,-4.2c0,-0.084 0.007,-0.133 0.021,-0.147c0.014,-0.014 0.063,-0.021 0.147,-0.021l0.276,0c0.052,0 0.087,0.005 0.105,0.015c0.018,0.01 0.037,0.033 0.057,0.069l2.262,3.882l0,-3.882c0,-0.056 0.028,-0.084 0.084,-0.084l0.264,0c0.056,0 0.084,0.028 0.084,0.084l0,4.2c0,0.084 -0.007,0.133 -0.021,0.147c-0.014,0.014 -0.063,0.021 -0.147,0.021l-0.366,0c-0.032,0 -0.055,-0.004 -0.069,-0.012c-0.014,-0.008 -0.031,-0.028 -0.051,-0.06l-2.208,-3.816l0,3.804c0,0.056 -0.028,0.084 -0.084,0.084Z" style="fill:#ff5722;fill-rule:nonzero;"/><path d="M6.054,4.434c0,0.056 -0.028,0.084 -0.084,0.084l-0.276,0c-0.056,0 -0.084,-0.028 -0.084,-0.084l0,-1.794c-0.268,-0.42 -0.535,-0.837 -0.801,-1.251c-0.266,-0.414 -0.533,-0.827 -0.801,-1.239c-0.008,-0.02 -0.008,-0.039 0,-0.057c0.008,-0.018 0.024,-0.027 0.048,-0.027l0.342,0c0.048,0 0.088,0.028 0.12,0.084l1.308,2.106c0.24,-0.364 0.466,-0.715 0.678,-1.053c0.212,-0.338 0.438,-0.689 0.678,-1.053c0.028,-0.056 0.068,-0.084 0.12,-0.084l0.3,0c0.024,0 0.041,0.009 0.051,0.027c0.01,0.018 0.009,0.037 -0.003,0.057l-1.596,2.49l0,1.794Z" style="fill:#ff5722;fill-rule:nonzero;"/><path d="M10.872,4.086c0.024,-0.008 0.046,-0.009 0.066,-0.003c0.02,0.006 0.03,0.021 0.03,0.045l0.012,0.234c0.004,0.052 -0.024,0.088 -0.084,0.108c-0.132,0.044 -0.268,0.076 -0.408,0.096c-0.14,0.02 -0.316,0.03 -0.528,0.03c-0.696,0 -1.25,-0.212 -1.662,-0.636c-0.204,-0.208 -0.355,-0.45 -0.453,-0.726c-0.098,-0.276 -0.147,-0.588 -0.147,-0.936c0,-0.684 0.206,-1.238 0.618,-1.662c0.42,-0.424 0.968,-0.636 1.644,-0.636c0.096,0 0.183,0.002 0.261,0.006c0.078,0.004 0.154,0.01 0.228,0.018c0.074,0.008 0.147,0.018 0.219,0.03c0.072,0.012 0.148,0.028 0.228,0.048c0.06,0.012 0.088,0.05 0.084,0.114l-0.012,0.24c-0.008,0.056 -0.038,0.074 -0.09,0.054c-0.156,-0.052 -0.304,-0.087 -0.444,-0.105c-0.14,-0.018 -0.298,-0.027 -0.474,-0.027c-0.564,0 -1.014,0.18 -1.35,0.54c-0.312,0.348 -0.468,0.808 -0.468,1.38c0,0.288 0.038,0.548 0.114,0.78c0.076,0.232 0.192,0.434 0.348,0.606c0.324,0.36 0.776,0.538 1.356,0.534c0.168,-0.004 0.335,-0.016 0.501,-0.036c0.166,-0.02 0.303,-0.052 0.411,-0.096Z" style="fill:#ff5722;fill-rule:nonzero;"/></svg>